<?xml version="1.0" encoding="UTF-8"?>
<svg version="1.1" xmlns="http://www.w3.org/2000/svg" width="1536" height="672">
<!-- Background path removed -->
<path d="M0 0 C12.54 0 25.08 0 38 0 C38 58.41 38 116.82 38 177 C27.44 177 16.88 177 6 177 C3.69 174.03 1.38 171.06 -1 168 C-2.61303581 166.03180034 -4.2366924 164.07221408 -5.875 162.125 C-10.62969278 156.45409037 -15.32242471 150.73460743 -20 145 C-25.3183327 138.48755109 -30.65320319 131.98908642 -36 125.5 C-41.34638684 119.01058764 -46.68387829 112.51424597 -52 106 C-53.0403429 104.73175305 -54.08070922 103.4635253 -55.12109375 102.1953125 C-60.79564241 95.2615915 -66.37711616 88.31585945 -71.609375 81.0390625 C-75.17753739 76.50306521 -79.13925307 72.28971881 -83 68 C-83.33 103.97 -83.66 139.94 -84 177 C-96.54 177 -109.08 177 -122 177 C-122 118.92 -122 60.84 -122 1 C-90 1 -90 1 -83.0625 6.8125 C-80.87109375 10.4375 -80.87109375 10.4375 -79.93310547 12.2734375 C-78.5063898 14.91334676 -76.58524789 17.05253055 -74.625 19.3125 C-73.0824589 21.20762192 -71.54088248 23.10352925 -70 25 C-68.97935566 26.25015432 -67.95850933 27.50014375 -66.9375 28.75 C-61.65227394 35.2277495 -56.40010996 41.72663498 -51.25 48.3125 C-45.73312163 55.36480111 -40.13559639 62.34517503 -34.3125 69.1484375 C-29.08012014 75.26414686 -24.10830336 81.46284041 -19.328125 87.9453125 C-15.90702457 92.43407179 -12.2532358 96.71092915 -8.578125 100.9921875 C-6.02452395 103.97138873 -3.51198099 106.98562282 -1 110 C-0.67 73.7 -0.34 37.4 0 0 Z " fill="#9C9DB8" transform="translate(958,183)"/>
<path d="M0 0 C1.051875 0.33257812 2.10375 0.66515625 3.1875 1.0078125 C9.10665451 2.88714406 14.53116185 5.05524099 20 8 C19.3385563 11.90395575 18.19259727 15.37839875 16.75 19.0625 C16.30785156 20.19171875 15.86570312 21.3209375 15.41015625 22.484375 C13.32661315 27.67880378 11.1821947 32.84630612 9 38 C5.46336144 37.43117002 2.85355346 36.5138901 -0.25 34.75 C-4.93047437 32.32882228 -9.6495203 30.72585991 -14.6875 29.25 C-15.4000293 29.03956055 -16.11255859 28.82912109 -16.84667969 28.61230469 C-25.33851366 26.20240661 -33.58357778 25.76525432 -42.375 25.6875 C-44.00308594 25.64399414 -44.00308594 25.64399414 -45.6640625 25.59960938 C-54.32043236 25.53165478 -61.46923293 27.12799755 -68 33.125 C-68.556875 33.62257812 -69.11375 34.12015625 -69.6875 34.6328125 C-73.14115733 38.23037222 -72.38781763 42.96500409 -72.3359375 47.66015625 C-71.84937587 52.49748404 -70.43982544 55.57720339 -67 59 C-56.06544227 66.35979847 -40.6050986 68.39573998 -27.92285156 71.18408203 C-20.81309982 72.76332777 -13.90479445 74.66800338 -7 77 C-7 77.66 -7 78.32 -7 79 C-6.11957031 79.11214844 -5.23914062 79.22429687 -4.33203125 79.33984375 C5.60012913 81.30764575 14.69044093 88.41737644 20.78515625 96.3125 C27.86115597 107.16120718 29.13464226 119.35131758 28 132 C25.32526103 144.68908904 16.1087863 156.56117992 5.4375 163.71875 C-10.67756239 172.90058787 -26.21577868 175.35786901 -44.5625 175.25 C-45.88185547 175.25773438 -47.20121094 175.26546875 -48.56054688 175.2734375 C-59.60657392 175.25155335 -69.93779822 173.91156208 -80.5 170.6875 C-81.2228418 170.4694873 -81.94568359 170.25147461 -82.69042969 170.02685547 C-93.4520479 166.70474918 -104.69319596 162.44983164 -114 156 C-115.1410892 153.40962088 -115.06846104 152.221671 -114.22729492 149.49804688 C-113.61011597 148.12229492 -113.61011597 148.12229492 -112.98046875 146.71875 C-112.53509766 145.71199219 -112.08972656 144.70523438 -111.63085938 143.66796875 C-111.15455078 142.62253906 -110.67824219 141.57710937 -110.1875 140.5 C-109.72279297 139.45457031 -109.25808594 138.40914062 -108.77929688 137.33203125 C-106.92723313 133.18149528 -105.05984044 129.05214512 -103 125 C-102.32195312 125.44730469 -101.64390625 125.89460937 -100.9453125 126.35546875 C-86.67593479 135.62463516 -70.38647095 143.86861609 -53 144 C-51.42446547 144.04904119 -49.84894602 144.09856795 -48.2734375 144.1484375 C-37.1103394 144.41305512 -26.59942718 144.50283777 -17 138 C-16.34 138 -15.68 138 -15 138 C-14.5359375 136.824375 -14.5359375 136.824375 -14.0625 135.625 C-13 133 -13 133 -12 131 C-11.50580087 125.58811446 -11.34119152 120.64702121 -13.375 115.5625 C-21.60396235 107.52946532 -34.25792252 105.18173803 -45 102 C-46.24652344 101.62746094 -47.49304687 101.25492187 -48.77734375 100.87109375 C-53.47065832 99.5001943 -58.16173102 98.17993511 -62.92578125 97.078125 C-80.25320712 93.05784541 -95.01381092 87.00299031 -105.46484375 71.84765625 C-109.7896174 63.8253662 -111.63566415 57.12833567 -111.4375 48 C-111.44458984 47.07960937 -111.45167969 46.15921875 -111.45898438 45.2109375 C-111.33060138 31.18756437 -105.75395928 21.94108485 -96.4375 11.8125 C-72.66743881 -11.16402348 -29.29575169 -10.23856628 0 0 Z " fill="#9B9FBA" transform="translate(1143,187)"/>
<path d="M0 0 C32.67 0 65.34 0 99 0 C99.1209091 32.65889206 99.1209091 32.65889206 99.14648438 46.38476562 C99.16425873 55.84778747 99.18511064 65.31072894 99.22631836 74.77368164 C99.25632043 81.66668057 99.27559854 88.55961406 99.28226548 95.45267648 C99.28615954 99.09890263 99.29524253 102.74494167 99.31719017 106.39110756 C99.34155389 110.47216543 99.3419631 114.55290273 99.34057617 118.6340332 C99.351362 119.82878265 99.36214783 121.0235321 99.3732605 122.25448608 C99.34622812 129.63393019 98.30673418 135.99570618 96 143 C95.66590512 144.08307167 95.66590512 144.08307167 95.32506084 145.18802357 C91.68517866 156.65703733 83.95851174 166.08780505 73.546875 171.94140625 C55.20179255 181.27587935 33.02412619 183.57544703 13.25390625 177.2578125 C1.77999799 172.82252023 -7.39491524 166.80065487 -16 158 C-14.42322984 153.60517254 -12.16997933 149.72041187 -9.75 145.75 C-9.35176025 145.0912085 -8.95352051 144.43241699 -8.54321289 143.75366211 C-5.49714359 138.74401094 -2.33364637 133.8239824 1 129 C6 134 6 134 8.3125 136.4375 C17.55412212 145.24927923 26.09993268 148.98399495 39 149 C44.9379298 148.45386933 50.60552895 146.04291336 55 142 C56.79078256 139.12839009 57.93746871 136.20337403 59 133 C59.33969818 132.15674164 59.67939636 131.31348328 60.02938843 130.44467163 C61.26538733 126.05814824 61.30766613 122.04119865 61.31884766 117.50634766 C61.32889328 116.56912872 61.3389389 115.63190979 61.34928894 114.66629028 C61.38006969 111.58222034 61.39714198 108.49823701 61.4140625 105.4140625 C61.43277824 103.27028664 61.45235196 101.12651811 61.4727478 98.98275757 C61.52403198 93.35056893 61.56367769 87.71835641 61.60089111 82.08605957 C61.64800239 75.32278912 61.70958437 68.5596368 61.76873779 61.79646301 C61.85690476 51.53102312 61.9267018 41.26560534 62 31 C41.54 31 21.08 31 0 31 C0 20.77 0 10.54 0 0 Z " fill="#191355" transform="translate(360,183)"/>
<path d="M0 0 C12.87 0 25.74 0 39 0 C39 48.18 39 96.36 39 146 C68.37 146 97.74 146 128 146 C128 156.23 128 166.46 128 177 C85.76 177 43.52 177 0 177 C0 118.59 0 60.18 0 0 Z " fill="#191257" transform="translate(501,183)"/>
<path d="M0 0 C5.61 0 11.22 0 17 0 C17 26.4 17 52.8 17 80 C12.05 80 7.1 80 2 80 C-3.62194048 73.96161948 -3.62194048 73.96161948 -5.4140625 70.96875 C-8.22554081 66.51854325 -11.54629113 62.57870516 -14.9375 58.5625 C-19.8852419 52.6133894 -24.73322814 46.59999318 -29.44897461 40.46508789 C-31.29802971 38.07707217 -33.14668957 35.85604532 -35.3046875 33.73828125 C-37 32 -37 32 -37 30 C-37.66 30 -38.32 30 -39 30 C-39 46.17 -39 62.34 -39 79 C-44.28 79 -49.56 79 -55 79 C-55 53.26 -55 27.52 -55 1 C-40 1 -40 1 -36.515625 3.3515625 C-35.76796875 4.43179687 -35.0203125 5.51203125 -34.25 6.625 C-33.81921143 7.2118457 -33.38842285 7.79869141 -32.94458008 8.40332031 C-32.04326305 9.63382962 -31.16079883 10.87836214 -30.29736328 12.13574219 C-28.22628802 15.11179238 -25.94684534 17.91609212 -23.6875 20.75 C-22.78322834 21.90836589 -21.87959977 23.06723405 -20.9765625 24.2265625 C-17.56526547 28.57520841 -14.07051554 32.85421361 -10.5625 37.125 C-9.97106201 37.8478418 -9.37962402 38.57068359 -8.77026367 39.31542969 C-8.20799072 39.99766602 -7.64571777 40.67990234 -7.06640625 41.3828125 C-6.57084229 41.98496582 -6.07527832 42.58711914 -5.56469727 43.20751953 C-3.80395767 45.22458149 -1.89324363 47.10675637 0 49 C0 32.83 0 16.66 0 0 Z " fill="#18124F" transform="translate(700,397)"/>
<path d="M0 0 C29.04 0 58.08 0 88 0 C88 3.96 88 7.92 88 12 C60.61 12 33.22 12 5 12 C5 26.19 5 40.38 5 55 C37.67 55 70.34 55 104 55 C104 58.96 104 62.92 104 67 C60.11 67 16.22 67 -29 67 C-27.21851622 61.65554866 -25.6095032 56.8415271 -23.3203125 51.796875 C-22.80210937 50.64832031 -22.28390625 49.49976563 -21.75 48.31640625 C-21.21375 47.13949219 -20.6775 45.96257812 -20.125 44.75 C-19.08567142 42.45324539 -18.04662582 40.15636271 -17.0078125 37.859375 C-15.68523438 34.93578125 -14.36265625 32.0121875 -13 29 C-8.71 19.43 -4.42 9.86 0 0 Z " fill="#1B175A" transform="translate(696,274)"/>
<path d="M0 0 C6.27 0 12.54 0 19 0 C22.4778568 6.83238534 25.70080715 13.71744123 28.75 20.75 C32.26607635 28.80994815 35.82060061 36.85067249 39.42578125 44.87109375 C39.99898605 46.14725052 39.99898605 46.14725052 40.58377075 47.44918823 C42.12416826 50.8778933 43.66488404 54.30643983 45.21105957 57.73254395 C46.30075372 60.14740448 47.38696158 62.56380804 48.47265625 64.98046875 C48.79929764 65.7014122 49.12593903 66.42235565 49.46247864 67.16514587 C49.76755844 67.84565506 50.07263824 68.52616425 50.38696289 69.22729492 C50.65134659 69.81363205 50.91573029 70.39996918 51.18812561 71.0040741 C52.25266659 73.62115986 53.10655804 76.31967411 54 79 C48.06 79 42.12 79 36 79 C33.13813621 72.8997114 30.86310497 67.5208674 29 61 C16.46 61.33 3.92 61.66 -9 62 C-11.31 67.61 -13.62 73.22 -16 79 C-21.94 79 -27.88 79 -34 79 C-32.06999252 72.9479468 -29.87745575 67.1941633 -27.2265625 61.42578125 C-26.86600769 60.63088791 -26.50545288 59.83599457 -26.13397217 59.01701355 C-25.36480371 57.32187257 -24.59376468 55.62757927 -23.82098389 53.93408203 C-21.7926021 49.48789401 -19.77891622 45.03506844 -17.765625 40.58203125 C-17.36221893 39.69029205 -16.95881287 38.79855286 -16.54318237 37.87979126 C-12.7392424 29.45482697 -9.03526561 20.98822736 -5.375 12.5 C-5.09569641 11.85253815 -4.81639282 11.20507629 -4.52862549 10.53799438 C-3.01499293 7.02706836 -1.50671925 3.51390356 0 0 Z " fill="#191451" transform="translate(772,398)"/>
<path d="M0 0 C20.13 0 40.26 0 61 0 C61 4.62 61 9.24 61 14 C46.81 14 32.62 14 18 14 C18 19.94 18 25.88 18 32 C30.21 32 42.42 32 55 32 C55 36.62 55 41.24 55 46 C42.79 46 30.58 46 18 46 C18 51.94 18 57.88 18 64 C32.52 64 47.04 64 62 64 C62 68.95 62 73.9 62 79 C41.54 79 21.08 79 0 79 C0 52.93 0 26.86 0 0 Z " fill="#1E1A54" transform="translate(557,398)"/>
<path d="M0 0 C2.97 0 5.94 0 9 0 C9.28496338 0.67015137 9.56992676 1.34030273 9.86352539 2.03076172 C17.35861204 19.63643114 25.0068712 37.17009499 32.75 54.66796875 C33.03880539 55.32084366 33.32761078 55.97371857 33.62516785 56.64637756 C34.83060478 59.36913206 36.04038292 62.08970598 37.26269531 64.80493164 C39.51170456 69.80129843 41.34104625 74.77429569 43 80 C37.39 80 31.78 80 26 80 C23.69 74.39 21.38 68.78 19 63 C4.15 62.505 4.15 62.505 -11 62 C-9.35 57.71 -7.7 53.42 -6 49 C0.27 49 6.54 49 13 49 C12.46890625 47.68386719 11.9378125 46.36773437 11.390625 45.01171875 C4.1086201 26.91683133 4.1086201 26.91683133 1 18 C-3.1390305 24.20854574 -5.51936335 31.55419726 -8 38.5625 C-9.28872157 42.18638505 -10.72895937 45.64944287 -12.375 49.125 C-14.92656028 54.59037912 -16.91444951 60.19587545 -18.85693359 65.89892578 C-20.38450748 70.3645439 -22.0901588 74.68308084 -24 79 C-26.64 79 -29.28 79 -32 79 C-31.36418479 75.22832366 -30.28125925 71.95813205 -28.8046875 68.43359375 C-28.34320312 67.32532227 -27.88171875 66.21705078 -27.40625 65.07519531 C-26.64828125 63.27453613 -26.64828125 63.27453613 -25.875 61.4375 C-25.34592718 60.17172787 -24.81729132 58.90577302 -24.2890625 57.63964844 C-23.14643586 54.90254402 -22.00123517 52.16653458 -20.85449219 49.43115234 C-18.89603361 44.7562445 -16.95139353 40.07563982 -15.0078125 35.39453125 C-14.00146623 32.9723625 -12.99494746 30.55026552 -11.98834229 28.12820435 C-11.33498721 26.55606492 -10.68178628 24.98386143 -10.02874756 23.41159058 C-6.7698938 15.56936594 -3.501376 7.73804095 0 0 Z " fill="#9C9DB9" transform="translate(1008,397)"/>
<path d="M0 0 C22.11 0 44.22 0 67 0 C67 4.62 67 9.24 67 14 C58.75 14 50.5 14 42 14 C42 35.45 42 56.9 42 79 C36.39 79 30.78 79 25 79 C25 57.55 25 36.1 25 14 C16.75 14 8.5 14 0 14 C0 9.38 0 4.76 0 0 Z " fill="#17134C" transform="translate(468,398)"/>
<path d="M0 0 C1.12535156 0.00580078 1.12535156 0.00580078 2.2734375 0.01171875 C3.02367187 0.00785156 3.77390625 0.00398438 4.546875 0 C10.14682697 0.01010822 10.14682697 0.01010822 11.2734375 1.13671875 C11.36748892 3.13103605 11.39086999 5.12871418 11.38696289 7.12524414 C11.38688736 8.40649673 11.38681183 9.68774933 11.38673401 11.00782776 C11.38162659 12.41667723 11.37641059 13.82552631 11.37109375 15.234375 C11.36922952 16.66784109 11.36780564 18.10130782 11.36680603 19.53477478 C11.36298122 23.31431832 11.35315127 27.09382365 11.34210205 30.87335205 C11.3300923 35.40459656 11.32548551 39.93585382 11.31964874 44.46710968 C11.30993948 51.35700597 11.2907827 58.24681837 11.2734375 65.13671875 C24.4734375 65.13671875 37.6734375 65.13671875 51.2734375 65.13671875 C51.2734375 70.08671875 51.2734375 75.03671875 51.2734375 80.13671875 C32.1334375 80.13671875 12.9934375 80.13671875 -6.7265625 80.13671875 C-6.76667131 60.4611195 -6.76667131 60.4611195 -6.77539062 52.10351562 C-6.78137899 46.39053423 -6.78847912 40.67756879 -6.80200195 34.96459961 C-6.8128311 30.36105613 -6.81883939 25.75752976 -6.82143974 21.15397453 C-6.82329394 19.39362252 -6.82691446 17.63327149 -6.83229256 15.87292671 C-6.83950336 13.41599598 -6.84055343 10.9591368 -6.84008789 8.50219727 C-6.84368317 7.7670842 -6.84727844 7.03197113 -6.85098267 6.27458191 C-6.83795492 -0.03800507 -6.28116716 0.01133785 0 0 Z " fill="#201B55" transform="translate(852.7265625,396.86328125)"/>
<path d="M0 0 C45.21 0 90.42 0 137 0 C137 3.96 137 7.92 137 12 C90.47 12 43.94 12 -4 12 C-3 6 -3 6 0 0 Z " fill="#211D5D" transform="translate(663,348)"/>
<path d="M0 0 C5.94 0 11.88 0 18 0 C18 26.4 18 52.8 18 80 C12.39 80 6.78 80 1 80 C-0.7082941 78.2917059 -0.11971926 76.13995623 -0.12442017 73.86213684 C-0.12082489 73.12702377 -0.11722961 72.39191071 -0.11352539 71.63452148 C-0.11367142 70.86384338 -0.11381744 70.09316528 -0.1139679 69.2991333 C-0.1132686 66.73975861 -0.10547545 64.1804558 -0.09765625 61.62109375 C-0.09579213 59.85132385 -0.0943682 58.08155344 -0.09336853 56.31178284 C-0.08954288 51.64448634 -0.0797122 46.97722077 -0.06866455 42.30993652 C-0.05845144 37.55102965 -0.05387113 32.79211779 -0.04882812 28.03320312 C-0.03808997 18.68878629 -0.0204928 9.34440055 0 0 Z " fill="#A1A2BA" transform="translate(1071,397)"/>
<path d="M0 0 C5.94 0 11.88 0 18 0 C18.02255131 10.28304929 18.04091525 20.56608228 18.05181217 30.84915066 C18.05704093 35.6234828 18.06413844 40.39779721 18.07543945 45.17211914 C18.0862686 49.77566262 18.09227689 54.37918899 18.09487724 58.98274422 C18.09673144 60.74309623 18.10035196 62.50344726 18.10573006 64.26379204 C18.11294086 66.72072277 18.11399093 69.17758195 18.11352539 71.63452148 C18.11712067 72.36963455 18.12071594 73.10474762 18.12442017 73.86213684 C18.11405216 78.88594784 18.11405216 78.88594784 17 80 C11.39 80 5.78 80 0 80 C0 53.6 0 27.2 0 0 Z " fill="#25215B" transform="translate(925,397)"/>
<path d="M0 0 C28.38 0 56.76 0 86 0 C86 4.29 86 8.58 86 13 C55.97 13 25.94 13 -5 13 C-4 8 -4 8 0 0 Z " fill="#242160" transform="translate(710,202)"/>
<path d="M0 0 C25.74 0 51.48 0 78 0 C78 3.96 78 7.92 78 12 C50.61 12 23.22 12 -5 12 C-3.35 8.04 -1.7 4.08 0 0 Z " fill="#231F5E" transform="translate(718,183)"/>
<path d="M0 0 C26.4 0 52.8 0 80 0 C80 3.63 80 7.26 80 11 C52.28 11 24.56 11 -4 11 C-1 2 -1 2 0 0 Z " fill="#1E195C" transform="translate(704,256)"/>
<path d="M0 0 C1.65322266 0.01740234 1.65322266 0.01740234 3.33984375 0.03515625 C4.99693359 0.04869141 4.99693359 0.04869141 6.6875 0.0625 C7.54214844 0.07410156 8.39679687 0.08570313 9.27734375 0.09765625 C7.62595637 4.32396776 5.81163728 8.47188615 3.96875 12.6171875 C3.64579453 13.34518051 3.32283905 14.07317352 2.99009705 14.82322693 C1.94120715 17.18606944 0.89067373 19.54817597 -0.16015625 21.91015625 C-0.51625977 22.71134888 -0.87236328 23.5125415 -1.23925781 24.3380127 C-7.30057699 37.97120707 -13.4568251 51.55708893 -19.72265625 65.09765625 C-23.68265625 65.09765625 -27.64265625 65.09765625 -31.72265625 65.09765625 C-29.42765748 57.39120282 -26.11610819 50.2836293 -22.65509033 43.05227661 C-20.96378162 39.5170876 -19.28904901 35.97410755 -17.6171875 32.4296875 C-17.28422668 31.7239006 -16.95126587 31.01811371 -16.60821533 30.29093933 C-13.10996173 22.84421565 -9.8260817 15.31056403 -6.60522461 7.73974609 C-6.23405518 6.86914551 -5.86288574 5.99854492 -5.48046875 5.1015625 C-5.16223145 4.34689697 -4.84399414 3.59223145 -4.51611328 2.81469727 C-3.25495007 0.08554008 -3.17858685 0.11400957 0 0 Z " fill="#221A5D" transform="translate(693.72265625,201.90234375)"/>
<path d="M0 0 C3.96 0 7.92 0 12 0 C9.67493006 7.61882781 6.48452548 14.62861275 3.0625 21.8125 C-0.57033631 29.49634176 -4.13280372 37.19863781 -7.453125 45.0234375 C-7.72761978 45.67030014 -8.00211456 46.31716278 -8.28492737 46.98362732 C-9.60727302 50.10975767 -10.91677265 53.24060243 -12.21655273 56.3762207 C-12.68520752 57.49343506 -13.1538623 58.61064941 -13.63671875 59.76171875 C-14.04623779 60.75131592 -14.45575684 61.74091309 -14.87768555 62.76049805 C-16 65 -16 65 -18 66 C-22.0610954 41.09194818 -10.96111299 21.62098971 0 0 Z " fill="#1F185C" transform="translate(677,274)"/>
<path d="M0 0 C1.134375 0.020625 2.26875 0.04125 3.4375 0.0625 C2.85278443 4.53498769 1.69490857 8.2241858 -0.109375 12.3515625 C-0.625 13.54136719 -1.140625 14.73117187 -1.671875 15.95703125 C-2.21849816 17.20063156 -2.76537415 18.44412077 -3.3125 19.6875 C-4.37035708 22.11694138 -5.42765379 24.54662684 -6.484375 26.9765625 C-7.26905151 28.77577148 -7.26905151 28.77577148 -8.06958008 30.61132812 C-9.82204549 34.66248938 -11.52028129 38.73416101 -13.20947266 42.81201172 C-16.06049334 49.66125196 -18.97452304 56.48409276 -21.875 63.3125 C-22.52672909 64.84764081 -23.17842203 66.38279696 -23.83007812 67.91796875 C-25.40713647 71.63298911 -26.98468021 75.34780298 -28.5625 79.0625 C-31.2025 79.0625 -33.8425 79.0625 -36.5625 79.0625 C-32.68326408 68.35999772 -28.42222777 57.88587688 -23.84109497 47.46569824 C-18.12267266 34.45270339 -12.56630514 21.40095968 -7.39355469 8.16040039 C-7.0277832 7.22574951 -6.66201172 6.29109863 -6.28515625 5.328125 C-5.97328369 4.52149414 -5.66141113 3.71486328 -5.34008789 2.88378906 C-3.96488395 -0.33725376 -3.87332072 0.067953 0 0 Z " fill="#9C9DB7" transform="translate(996.5625,396.9375)"/>
<path d="M0 0 C3.96 0 7.92 0 12 0 C4.21510647 18.09898058 -3.85425981 36.06136409 -12 54 C-12.33 54 -12.66 54 -13 54 C-15.37937079 32.83908703 -9.6476202 18.31429375 0 0 Z " fill="#221A5E" transform="translate(672,202)"/>
<path d="M0 0 C2.51659977 3.06934722 4.00815521 6.075917 5.48046875 9.75390625 C5.92197266 10.85541016 6.36347656 11.95691406 6.81835938 13.09179688 C7.27017578 14.23712891 7.72199219 15.38246094 8.1875 16.5625 C8.65091797 17.71169922 9.11433594 18.86089844 9.59179688 20.04492188 C13 28.61311441 13 28.61311441 13 32 C4.75 32 -3.5 32 -12 32 C-9.96677237 25.22257455 -7.88589434 18.67053203 -5.4375 12.0625 C-5.13392578 11.22654297 -4.83035156 10.39058594 -4.51757812 9.52929688 C-4.22173828 8.72685547 -3.92589844 7.92441406 -3.62109375 7.09765625 C-3.3573999 6.38101807 -3.09370605 5.66437988 -2.82202148 4.92602539 C-2 3 -2 3 0 0 Z " fill="#F2F2F3" transform="translate(781,414)"/>
<path d="M0 0 C0.33 0 0.66 0 1 0 C2.18805109 28.35177316 2.18805109 28.35177316 -5 40 C-5.33 41.32 -5.66 42.64 -6 44 C-10.29 44 -14.58 44 -19 44 C-16.56405787 35.94399137 -13.09281643 28.46336159 -9.5 20.875 C-8.62244748 19.01086717 -7.7463335 17.14606929 -6.87121582 15.28079224 C-6.07877938 13.59339552 -5.28267015 11.90772502 -4.48632812 10.22216797 C-2.92567656 6.83887636 -1.45303124 3.43064789 0 0 Z " fill="#271F5F" transform="translate(700,223)"/>
<path d="M0 0 C3.63 0 7.26 0 11 0 C8.37589493 8.64411081 4.68616238 16.76925385 1 25 C0.67 25 0.34 25 0 25 C0 16.75 0 8.5 0 0 Z " fill="#21185D" transform="translate(659,274)"/>
<path d="M0 0 C4.62 0 9.24 0 14 0 C13.07988583 4.60057086 11.89559434 7.79672559 10 12 C6.7 12 3.4 12 0 12 C0 8.04 0 4.08 0 0 Z " fill="#26215F" transform="translate(659,183)"/>
<path d="M0 0 C3.96 0 7.92 0 12 0 C10.87475249 4.50099004 9.12447983 7.88810356 7 12 C3.37 12 -0.26 12 -4 12 C-3.07988583 7.39942914 -1.89559434 4.20327441 0 0 Z " fill="#27235F" transform="translate(680,183)"/>
<path d="M0 0 C3.96 0 7.92 0 12 0 C10.68938409 4.23429756 9.05643741 8.07407404 7 12 C3.37 12 -0.26 12 -4 12 C-3.07988583 7.39942914 -1.89559434 4.20327441 0 0 Z " fill="#262160" transform="translate(699,183)"/>
<path d="M0 0 C1.98 0 3.96 0 6 0 C4.45730076 4.72065967 2.92205381 9.41664092 1 14 C0.67 14 0.34 14 0 14 C0 9.38 0 4.76 0 0 Z " fill="#2B2360" transform="translate(659,202)"/>
<path d="M0 0 C-0.9075 0.598125 -1.815 1.19625 -2.75 1.8125 C-5.22901481 3.48106766 -7.63317911 5.17936855 -10 7 C-9.4376049 3.73810844 -8.5859495 2.08865152 -6 0 C-3 -1 -3 -1 0 0 Z " fill="#BABBCE" transform="translate(1081,216)"/>
<path d="M0 0 C0.66 0.33 1.32 0.66 2 1 C0.02 5.455 0.02 5.455 -2 10 C-3.26066301 6.21801096 -2.42292658 4.63636792 -1 1 C-0.67 0.67 -0.34 0.34 0 0 Z " fill="#2D2463" transform="translate(662,246)"/>
<path d="M0 0 C1.32 0 2.64 0 4 0 C3.34 1.98 2.68 3.96 2 6 C1.34 5.67 0.68 5.34 0 5 C0 3.35 0 1.7 0 0 Z " fill="#1E1D5B" transform="translate(669,184)"/>
</svg>